<svg xmlns="http://www.w3.org/2000/svg" fill="none" viewBox="0 0 100 100" id="Jwt-Icon--Streamline-Svg-Logos" height="100" width="100">
  <desc>
    Jwt Icon Streamline Icon: https://streamlinehq.com
  </desc>
  <path fill="#ffffff" d="M57.39302083333333 27.381250000000005 57.295104166666675 1.0416666666666667h-14.6875l0.09791666666666668 26.339583333333337 7.34375 10.085416666666667 7.34375 -10.085416666666667Z" stroke-width="1.0417"></path>
  <path fill="#ffffff" d="M42.70583333333334 72.5209375v26.4375h14.6875v-26.4375l-7.34375 -10.085416666666667 -7.34375 10.085416666666667Z" stroke-width="1.0417"></path>
  <path fill="#00f2e6" d="m57.39239583333334 72.52083333333334 15.470833333333335 21.345833333333335 11.847916666666668 -8.616666666666667 -15.470833333333335 -21.345833333333335 -11.847916666666668 -3.81875V72.52083333333334Z" stroke-width="1.0417"></path>
  <path fill="#00f2e6" d="M42.70541666666667 27.38114583333334 27.13666666666667 6.035364583333333l-11.847916666666668 8.616614583333334 15.470833333333335 21.345833333333335 11.945833333333335 3.81875v-12.435416666666669Z" stroke-width="1.0417"></path>
  <path fill="#00b9f1" d="m30.75947916666667 35.9978125 -25.06665625 -8.127083333333333 -4.504166666666666 13.904166666666669 25.06665625 8.225 11.847916666666668 -3.9166666666666665 -7.34375 -10.085416666666667Z" stroke-width="1.0417"></path>
  <path fill="#00b9f1" d="m61.89677083333334 53.81875 7.34375 10.085416666666667 25.06666666666667 8.127083333333333 4.504166666666666 -13.904166666666669L73.7446875 50l-11.847916666666668 3.81875Z" stroke-width="1.0417"></path>
  <path fill="#d63aff" d="m73.7446875 49.99989583333333 25.06666666666667 -8.225 -4.504166666666666 -13.904166666666669 -25.06666666666667 8.127083333333333 -7.34375 10.085416666666667 11.847916666666668 3.9166666666666665Z" stroke-width="1.0417"></path>
  <path fill="#d63aff" d="M26.255312500000002 50 1.1886562500000002 58.12708333333334l4.504166666666666 13.904166666666669 25.06665625 -8.127083333333333 7.34375 -10.085416666666667L26.255312500000002 50Z" stroke-width="1.0417"></path>
  <path fill="#fb015b" d="M30.759583333333335 63.90416666666667 15.28875 85.25000000000001l11.847916666666668 8.616666666666667 15.568750000000001 -21.345833333333335V60.085416666666674l-11.945833333333335 3.81875Z" stroke-width="1.0417"></path>
  <path fill="#fb015b" d="m69.2403125 35.9978125 15.470833333333335 -21.345833333333335 -11.847916666666668 -8.616614583333334 -15.470833333333335 21.34578125v12.435416666666669l11.847916666666668 -3.81875Z" stroke-width="1.0417"></path>
</svg>